<svg width="33" height="32" viewBox="0 0 33 32" fill="none" xmlns="http://www.w3.org/2000/svg">
<path d="M27.1667 13.3333C27.5203 13.3333 27.8594 13.1929 28.1095 12.9428C28.3595 12.6928 28.5 12.3536 28.5 12V8C28.5 7.64638 28.3595 7.30724 28.1095 7.05719C27.8594 6.80714 27.5203 6.66667 27.1667 6.66667H23.8333C23.6263 6.66667 23.4222 6.61847 23.237 6.5259C23.0519 6.43333 22.8909 6.29893 22.7667 6.13333L21.5667 4.53333C21.4425 4.36774 21.2814 4.23333 21.0963 4.14076C20.9111 4.04819 20.707 4 20.5 4H17.8333C17.4797 4 17.1406 4.14048 16.8905 4.39052C16.6405 4.64057 16.5 4.97971 16.5 5.33333V12C16.5 12.3536 16.6405 12.6928 16.8905 12.9428C17.1406 13.1929 17.4797 13.3333 17.8333 13.3333H27.1667Z" stroke="#03142E" stroke-width="2.66667" stroke-linecap="round" stroke-linejoin="round"/>
<path d="M27.1667 28C27.5203 28 27.8594 27.8596 28.1095 27.6095C28.3595 27.3595 28.5 27.0203 28.5 26.6667V22.6667C28.5 22.3131 28.3595 21.9739 28.1095 21.7239C27.8594 21.4738 27.5203 21.3334 27.1667 21.3334H23.3C23.0561 21.3302 22.8177 21.2601 22.6108 21.1308C22.4039 21.0015 22.2364 20.8179 22.1267 20.6L21.5667 19.4667C21.4626 19.2282 21.291 19.0254 21.073 18.8832C20.855 18.7411 20.6002 18.6658 20.34 18.6667H17.8333C17.4797 18.6667 17.1406 18.8072 16.8905 19.0572C16.6405 19.3073 16.5 19.6464 16.5 20V26.6667C16.5 27.0203 16.6405 27.3595 16.8905 27.6095C17.1406 27.8596 17.4797 28 17.8333 28H27.1667Z" stroke="#03142E" stroke-width="2.66667" stroke-linecap="round" stroke-linejoin="round"/>
<path d="M4.5 6.66669C4.5 7.37393 4.78095 8.05221 5.28105 8.55231C5.78115 9.0524 6.45942 9.33335 7.16667 9.33335H11.1667" stroke="#03142E" stroke-width="2.66667" stroke-linecap="round" stroke-linejoin="round"/>
<path d="M4.5 4V21.3333C4.5 22.0406 4.78095 22.7189 5.28105 23.219C5.78115 23.719 6.45942 24 7.16667 24H11.1667" stroke="#03142E" stroke-width="2.66667" stroke-linecap="round" stroke-linejoin="round"/>
</svg>
