<svg width="48" height="48" viewBox="0 0 48 48" fill="none" xmlns="http://www.w3.org/2000/svg">
<path d="M13.3327 45.5357H34.667C38.8259 45.5357 40.895 43.4262 40.895 39.2477V21.0068C40.895 18.4148 40.6139 17.2902 39.0067 15.6428L27.917 4.37309C26.3913 2.80538 25.145 2.46423 22.8753 2.46423H13.3327C9.19445 2.46423 7.10474 4.59338 7.10474 8.7728V39.2477C7.10474 43.4459 9.19445 45.5357 13.3327 45.5357ZM13.493 42.3017C11.4239 42.3017 10.3387 41.1959 10.3387 39.1877V8.83281C10.3387 6.84423 11.4239 5.69823 13.5136 5.69823H22.433V17.3708C22.433 19.9019 23.7187 21.1474 26.2096 21.1474H37.661V39.1877C37.661 41.1959 36.5956 42.3017 34.5067 42.3017H13.493ZM26.5713 18.1131C25.7879 18.1131 25.4656 17.7925 25.4656 16.9885V6.32138L37.037 18.1139L26.5713 18.1131ZM31.3927 26.6717H16.1442C15.4216 26.6717 14.8996 27.2142 14.8996 27.8974C14.8996 28.6002 15.4225 29.1428 16.145 29.1428H31.3927C31.557 29.1455 31.7202 29.1151 31.8725 29.0534C32.0248 28.9918 32.1631 28.9001 32.2793 28.784C32.3955 28.6678 32.4871 28.5294 32.5488 28.3771C32.6104 28.2248 32.6408 28.0617 32.6382 27.8974C32.6382 27.2142 32.0956 26.6717 31.3927 26.6717ZM31.3927 33.6831H16.1442C15.4216 33.6831 14.8996 34.2454 14.8996 34.9482C14.8996 35.6314 15.4225 36.1542 16.145 36.1542H31.3927C32.0956 36.1542 32.6382 35.6314 32.6382 34.9482C32.6382 34.2454 32.0956 33.6831 31.3927 33.6831Z" fill="white"/>
</svg>
