<svg width="33" height="32" viewBox="0 0 33 32" fill="none" xmlns="http://www.w3.org/2000/svg">
<path d="M20.4999 2.66663H8.49992C7.79267 2.66663 7.1144 2.94758 6.6143 3.44767C6.1142 3.94777 5.83325 4.62605 5.83325 5.33329V26.6666C5.83325 27.3739 6.1142 28.0521 6.6143 28.5522C7.1144 29.0523 7.79267 29.3333 8.49992 29.3333H24.4999C25.2072 29.3333 25.8854 29.0523 26.3855 28.5522C26.8856 28.0521 27.1666 27.3739 27.1666 26.6666V9.33329L20.4999 2.66663Z" stroke="#03142E" stroke-width="2.66667" stroke-linecap="round" stroke-linejoin="round"/>
<path d="M19.1667 2.66663V7.99996C19.1667 8.7072 19.4477 9.38548 19.9478 9.88558C20.4479 10.3857 21.1262 10.6666 21.8334 10.6666H27.1667" stroke="#03142E" stroke-width="2.66667" stroke-linecap="round" stroke-linejoin="round"/>
<path d="M13.8334 12H11.1667" stroke="#03142E" stroke-width="2.66667" stroke-linecap="round" stroke-linejoin="round"/>
<path d="M21.8334 17.3334H11.1667" stroke="#03142E" stroke-width="2.66667" stroke-linecap="round" stroke-linejoin="round"/>
<path d="M21.8334 22.6666H11.1667" stroke="#03142E" stroke-width="2.66667" stroke-linecap="round" stroke-linejoin="round"/>
</svg>
