<svg width="36" height="36" viewBox="0 0 36 36" fill="none" xmlns="http://www.w3.org/2000/svg">
<path d="M34.8075 17.6175C33.5225 14.2547 31.2817 11.3413 28.3613 9.23625L33.75 3.83625L32.1638 2.25L2.25 32.1637L3.83625 33.75L9.57375 28.0238C12.1351 29.5154 15.0364 30.325 18 30.375C21.6669 30.2371 25.2131 29.0277 28.2002 26.8964C31.1872 24.7651 33.4843 21.8051 34.8075 18.3825C34.8969 18.1353 34.8969 17.8647 34.8075 17.6175ZM18 25.3125C16.4493 25.3118 14.9395 24.8151 13.6913 23.895L15.75 21.8587C16.6037 22.3265 17.5859 22.5048 18.5495 22.367C19.5131 22.2291 20.406 21.7826 21.0943 21.0943C21.7826 20.406 22.2291 19.5131 22.367 18.5495C22.5048 17.5859 22.3265 16.6036 21.8588 15.75L23.895 13.7137C24.6876 14.8023 25.1636 16.0888 25.2706 17.431C25.3776 18.7733 25.1114 20.119 24.5013 21.3193C23.8912 22.5197 22.9611 23.528 21.8137 24.2327C20.6664 24.9374 19.3465 25.3111 18 25.3125ZM5.09625 24.5362L10.7213 18.9112C10.6924 18.6084 10.6811 18.3041 10.6875 18C10.6905 16.0615 11.4619 14.2033 12.8326 12.8326C14.2033 11.4619 16.0615 10.6905 18 10.6875C18.2971 10.6895 18.5938 10.7083 18.8888 10.7438L23.1413 6.5025C21.4861 5.93424 19.7499 5.6379 18 5.625C14.3331 5.76289 10.7869 6.97225 7.79985 9.1036C4.81277 11.2349 2.51568 14.1949 1.1925 17.6175C1.10314 17.8647 1.10314 18.1353 1.1925 18.3825C2.05769 20.6799 3.38651 22.7746 5.09625 24.5362Z" fill="#03142E"/>
</svg>
