<svg width="48" height="48" viewBox="0 0 48 48" fill="none" xmlns="http://www.w3.org/2000/svg">
<path d="M10 42C8.9 42 7.95867 41.6087 7.176 40.826C6.39333 40.0433 6.00133 39.1013 6 38V10C6 8.9 6.392 7.95867 7.176 7.176C7.96 6.39333 8.90133 6.00133 10 6H38C39.1 6 40.042 6.392 40.826 7.176C41.61 7.96 42.0013 8.90133 42 10V38C42 39.1 41.6087 40.042 40.826 40.826C40.0433 41.61 39.1013 42.0013 38 42H10ZM22 30H10V38H22V30ZM26 30V38H38V30H26ZM22 26V18H10V26H22ZM26 26H38V18H26V26ZM10 14H38V10H10V14Z" fill="white"/>
</svg>
