<svg width="48" height="48" viewBox="0 0 48 48" fill="none" xmlns="http://www.w3.org/2000/svg">
<path d="M12 38.0999L15.95 36.5C15.6167 35.5333 15.3087 34.5499 15.026 33.5499C14.7433 32.5499 14.518 31.5499 14.35 30.5499L12 32.15V38.0999ZM20 36H28C28.6 34.6666 29.0833 33.042 29.45 31.1259C29.8167 29.2099 30 27.2513 30 25.25C30 21.95 29.45 18.8253 28.35 15.876C27.25 12.9266 25.8 10.6513 24 9.04995C22.2 10.65 20.75 12.9253 19.65 15.876C18.55 18.8266 18 21.9513 18 25.25C18 27.25 18.1833 29.2086 18.55 31.1259C18.9167 33.0433 19.4 34.6679 20 36ZM24 26C22.9 26 21.9587 25.6086 21.176 24.826C20.3933 24.0433 20.0013 23.1013 20 22C19.9987 20.8986 20.3907 19.9573 21.176 19.176C21.9613 18.3946 22.9027 18.0026 24 18C25.0973 17.9973 26.0393 18.3893 26.826 19.176C27.6127 19.9626 28.004 20.9039 28 22C27.996 23.096 27.6047 24.038 26.826 24.826C26.0473 25.614 25.1053 26.0053 24 26ZM36 38.0999V32.15L33.65 30.5499C33.4833 31.5499 33.2587 32.5499 32.976 33.5499C32.6933 34.5499 32.3847 35.5333 32.05 36.5L36 38.0999ZM24 3.94995C27.3 6.34995 29.792 9.39995 31.476 13.1C33.16 16.8 34.0013 21.1 34 26L38.2 28.7999C38.7667 29.1666 39.2087 29.65 39.526 30.25C39.8433 30.85 40.0013 31.4833 40 32.15V44L30.05 40H17.95L8 44V32.15C8 31.4833 8.15867 30.85 8.476 30.25C8.79333 29.65 9.23467 29.1666 9.8 28.7999L14 26C14 21.1 14.842 16.8 16.526 13.1C18.21 9.39995 20.7013 6.34995 24 3.94995Z" fill="white"/>
</svg>
