<svg width="36" height="36" viewBox="0 0 36 36" fill="none" xmlns="http://www.w3.org/2000/svg">
<path d="M18 22.5C20.4853 22.5 22.5 20.4853 22.5 18C22.5 15.5147 20.4853 13.5 18 13.5C15.5147 13.5 13.5 15.5147 13.5 18C13.5 20.4853 15.5147 22.5 18 22.5Z" fill="#03142E"/>
<path d="M34.8075 17.6175C33.4843 14.1949 31.1872 11.2349 28.2002 9.1036C25.2131 6.97225 21.6669 5.76289 18 5.625C14.3331 5.76289 10.7869 6.97225 7.79985 9.1036C4.81277 11.2349 2.51568 14.1949 1.1925 17.6175C1.10314 17.8647 1.10314 18.1353 1.1925 18.3825C2.51568 21.8051 4.81277 24.7651 7.79985 26.8964C10.7869 29.0277 14.3331 30.2371 18 30.375C21.6669 30.2371 25.2131 29.0277 28.2002 26.8964C31.1872 24.7651 33.4843 21.8051 34.8075 18.3825C34.8969 18.1353 34.8969 17.8647 34.8075 17.6175ZM18 25.3125C16.5537 25.3125 15.1399 24.8836 13.9374 24.0801C12.7349 23.2766 11.7976 22.1346 11.2441 20.7984C10.6907 19.4622 10.5459 17.9919 10.828 16.5734C11.1102 15.1549 11.8066 13.852 12.8293 12.8293C13.852 11.8066 15.1549 11.1102 16.5734 10.828C17.9919 10.5459 19.4622 10.6907 20.7984 11.2441C22.1346 11.7976 23.2766 12.7349 24.0801 13.9374C24.8836 15.1399 25.3125 16.5537 25.3125 18C25.3095 19.9385 24.5382 21.7967 23.1674 23.1674C21.7967 24.5381 19.9385 25.3095 18 25.3125Z" fill="#03142E"/>
</svg>
